<?xml version="1.0" encoding="UTF-8" standalone="no"?>
<!-- Generator: Adobe Illustrator 15.0.2, SVG Export Plug-In . SVG Version: 6.00 Build 0)  -->
<svg xmlns:rdf="http://www.w3.org/1999/02/22-rdf-syntax-ns#" xmlns="http://www.w3.org/2000/svg" xmlns:x="http://ns.adobe.com/Extensibility/1.0/" xmlns:dc="http://purl.org/dc/elements/1.1/" xmlns:i="http://ns.adobe.com/AdobeIllustrator/10.0/" xmlns:cc="http://web.resource.org/cc/" xmlns:xlink="http://www.w3.org/1999/xlink" xmlns:graph="http://ns.adobe.com/Graphs/1.0/" xmlns:svg="http://www.w3.org/2000/svg" xmlns:inkscape="http://www.inkscape.org/namespaces/inkscape" xmlns:sodipodi="http://sodipodi.sourceforge.net/DTD/sodipodi-0.dtd" xmlns:ns1="http://sozi.baierouge.fr" id="Layer_1" enable-background="new 0 0 360 180" xml:space="preserve" viewBox="0 0 360 180" version="1.1" y="0px" x="0px">
<path d="m336.1 10.571c3.07-0.761 6.139-1.66 9.293-1.917-1.803 2.036-4.094 3.504-6.104 5.294-16.074 13.171-32.297 26.149-47.846 40.003-1.27 1.249-3.199 2.271-3.313 4.322 0.049 1.694 0.205 3.458 0.877 5.025 1.732-0.898 2.113-3.562 4.219-3.834 0.049 6.132-0.002 12.268 0 18.404 0.518 8.529 1.469 17.041 2.857 25.466 1.465 10.059 3.272 20.082 3.916 30.248 0.195 4.621 0.59 9.277 0.049 13.895-1.246 7.879-5.01 15.771-11.594 20.131-2.617 1.896-5.791 2.604-8.883 3.1-10.295 1.688-20.554-1.123-30.779-2.092-4.316-0.221-8.588-0.945-12.875-1.488-11.322-1.516-22.59-3.496-33.957-4.652-5.113-0.396-10.213-1.154-15.354-1.113-5-0.105-9.976-0.891-14.984-0.777-3.647 0.051-7.312-0.205-10.935 0.314-2.192 0.303-4.397 0.498-6.61 0.506-26.83 1.672-53.239 7.18-79.777 11.334-3.835 0.76-7.732 1.055-11.604 1.52-3.275 0.508-6.595 0.195-9.889 0.291-2.972 0.104-5.882-0.619-8.833-0.855-6.676-0.646-13.139-3.105-18.802-6.852-4.786-3.299-8.994-7.689-11.703-13.025-2.818-5.162-3.313-11.324-3.075-17.15 0.292-5.996 1.035-11.957 1.536-17.936 0.72-10.934 0.928-21.979-0.691-32.834-1.4-10.485-3.923-20.82-4.398-31.432-0.086-4.591-0.239-9.237 0.726-13.747 1.882-8.364 6.5-16.044 12.953-21.335 4.373-3.558 9.791-5.298 15.165-6.297 3.868-0.649 7.728-1.372 11.614-1.898 2.684 0.065 5.36-0.419 8.04-0.123 2.925 0.246 5.868-0.084 8.789 0.296 12.664 0.814 25.294 2.098 37.936 3.212 4.186 0.591 8.413 0.699 12.606 1.209 8.364 0.623 16.722 1.264 25.101 1.637 7.177 0.084 14.357 0.12 21.537-0.054 5.261 0.131 10.525 0.058 15.789 0.062 3.279-0.304 6.55-0.814 9.843-0.96 18.647-1.779 37.149-5.226 55.887-5.924 5.017-0.304 10.058-0.219 15.068 0.149 5.614 0.158 11.254 1.564 16.178 4.446 3.416 2.083 6.574 4.902 8.576 8.518-3.209 1.722-6.892 1.948-10.242 3.181 0 0.792 0.244 1.718 1 2.06 1.572 0.43 2.965-0.718 4.433-1.095 4.201-1.134 8.395-2.313 12.487-3.815 3.832-1.026 7.69-1.971 11.431-3.354 1.164-0.461 2.319-0.968 3.541-1.269 10.38-2.376 20.45-6.057 30.75-8.792z" fill="#FFFFFF"/>
<path d="m355.24 1.108c1.283-0.396 2.537-0.976 3.879-1.107 0.781-0.039 1.111 1.045 0.697 1.652-0.818 1.863-1.713 3.761-3.15 5.194-1.313 1.318-2.346 2.932-3.846 4.034-1.723 1.292-3.514 2.479-5.303 3.666-2.311 1.632-4.396 3.588-6.691 5.244-1.067 0.78-2.063 1.668-3.018 2.598-1.451 1.438-3.174 2.528-4.697 3.876-1.49 1.129-2.785 2.537-4.383 3.508-1.361 0.818-2.271 2.229-3.623 3.05-1.588 0.979-2.979 2.237-4.357 3.504-1.78 1.463-3.043 3.477-4.817 4.945-1.771 2.04-4.047 3.438-6.103 5.121-3.711 2.977-7.297 6.128-10.664 9.528-0.698 0.734-1.432 1.563-1.516 2.655-0.328 3.028-0.344 6.082-0.508 9.121-0.453 4.703-0.248 9.456 0.525 14.107 2.326 17.77 7.979 34.958 8.961 52.936 0.457 3.574-0.199 7.133-0.609 10.672-0.59 4.244-2.285 8.188-3.635 12.203-0.852 2.924-2.104 5.771-4.051 8.078-4.328 5.217-10.439 8.922-17.029 9.725-2.908 0.396-5.842 0.729-8.777 0.719-11.164-0.094-22.135-2.617-33.264-3.203-1.328-0.01-2.645 0.602-3.964 0.211-9.593-2.412-19.5-2.533-29.29-3.297-3.672-0.139-7.309-0.803-10.982-0.814-7.188-0.545-14.398-0.17-21.58 0.293-1.531 0.049-3.137 0.555-4.599-0.156-3.142-1.436-6.533-0.152-9.772 0.029-6.668 0.322-13.322 0.875-19.964 1.551-9.538 0.756-19.025 2.094-28.526 3.207-7.272-0.039-14.389 1.746-21.595 2.48-1.82 0.105-3.648-0.092-5.469 0.102-11.168 1.484-22.326 3.762-33.633 3.432-6.618 0.199-13.264-0.715-19.61-2.705-2.431-0.777-4.84-1.672-7.074-2.963-2.79-1.607-5.626-3.193-8.036-5.41-2.376-1.932-3.71-4.824-5.429-7.338-1.181-1.646-1.652-3.664-2.402-5.529-0.753-1.9-1.341-3.873-1.682-5.896-1.327-10.27 1.54-20.404 1.679-30.645 0.998-8.609 0.303-17.324-0.859-25.877-1.378-9.794-3.48-19.449-5.183-29.181-0.571-3.563-1.386-7.12-1.287-10.751 0.007-5.171 1.291-10.204 2.552-15.161 0.775-2.089 2.307-3.731 3.48-5.575 1.696-2.228 2.83-4.883 4.723-6.95 2.702-2.932 5.327-6.021 8.715-8.107 7.981-6.163 17.921-8.311 27.529-9.751 7.637-0.819 15.321-0.661 22.984-0.58 17.683 0.553 35.33 2.086 53.002 2.962 3.542 0.092 7.067 0.503 10.613 0.376 4.387 0.373 8.786 0.234 13.185 0.265 8.396 0.495 16.802-0.112 25.207-0.027 3.162-0.33 6.35-0.122 9.517-0.422 16.088-0.865 32.127-2.528 48.194-3.723 10.754-1.164 21.648-2.109 32.427-0.683 4.014 0.756 8.104 1.44 11.866 3.173 5.279 2.659 8.857 7.742 12.203 12.598 2.197-0.123 4.265-1.08 6.408-1.548 12.861-4.03 25.713-8.103 38.609-12.01 8.01-2.418 16.04-4.773 24-7.4m-19.14 9.463c-10.307 2.735-20.377 6.416-30.775 8.786-1.221 0.3-2.375 0.808-3.541 1.269-3.736 1.383-7.598 2.328-11.43 3.354-4.094 1.502-8.287 2.682-12.486 3.815-1.469 0.376-2.858 1.525-4.434 1.095-0.756-0.342-1-1.268-1-2.06 3.354-1.233 7.033-1.459 10.242-3.181-2.002-3.615-5.16-6.435-8.576-8.518-4.924-2.881-10.563-4.288-16.178-4.446-5.012-0.369-10.055-0.453-15.068-0.149-18.734 0.699-37.238 4.146-55.887 5.924-3.293 0.146-6.563 0.657-9.844 0.96-5.264-0.003-10.527 0.069-15.789-0.062-7.18 0.173-14.359 0.138-21.536 0.054-8.379-0.373-16.736-1.014-25.101-1.637-4.193-0.511-8.42-0.619-12.606-1.209-12.642-1.114-25.272-2.398-37.936-3.212-2.921-0.38-5.864-0.05-8.789-0.296-2.68-0.296-5.356 0.188-8.04 0.123-3.886 0.526-7.747 1.249-11.614 1.896-5.374 0.999-10.792 2.739-15.165 6.297-6.426 5.293-11.043 12.973-12.926 21.337-0.965 4.51-0.812 9.155-0.753 13.747 0.475 10.612 2.998 20.947 4.398 31.432 1.619 10.854 1.411 21.903 0.691 32.834-0.501 5.977-1.243 11.938-1.536 17.934-0.238 5.828 0.256 11.99 3.075 17.152 2.709 5.336 6.917 9.729 11.703 13.027 5.663 3.742 12.126 6.201 18.802 6.85 2.95 0.238 5.86 0.961 8.833 0.857 3.294-0.098 6.613 0.215 9.889-0.291 3.872-0.465 7.769-0.764 11.604-1.521 26.538-4.156 52.948-9.662 79.777-11.334 2.213-0.008 4.418-0.203 6.61-0.506 3.623-0.52 7.286-0.266 10.935-0.316 5.01-0.109 9.984 0.674 14.986 0.779 5.141-0.041 10.238 0.719 15.354 1.111 11.365 1.156 22.634 3.141 33.955 4.652 4.289 0.545 8.56 1.271 12.877 1.49 10.226 0.969 20.482 3.779 30.777 2.09 3.094-0.492 6.266-1.201 8.885-3.098 6.584-4.361 10.347-12.252 11.593-20.131 0.541-4.615 0.146-9.271-0.048-13.895-0.645-10.168-2.452-20.189-3.916-30.25-1.393-8.426-2.344-16.935-2.858-25.464-0.002-6.136 0.05-12.272 0-18.404-2.104 0.272-2.483 2.936-4.219 3.834-0.673-1.567-0.828-3.331-0.877-5.025 0.112-2.052 2.043-3.074 3.313-4.322 15.57-13.838 31.79-26.817 47.86-39.987 2.012-1.79 4.305-3.258 6.104-5.294-3.15 0.263-6.21 1.162-9.29 1.923z" fill="#231F20"/>
<metadata><rdf:RDF><cc:Work><dc:format>image/svg+xml</dc:format><dc:type rdf:resource="http://purl.org/dc/dcmitype/StillImage"/><cc:license rdf:resource="http://creativecommons.org/licenses/publicdomain/"/><dc:publisher><cc:Agent rdf:about="http://openclipart.org/"><dc:title>Openclipart</dc:title></cc:Agent></dc:publisher><dc:title>Caption Balloon 4</dc:title><dc:date>2012-12-02T20:29:42</dc:date><dc:description/><dc:source>https://openclipart.org/detail/173492/caption-balloon-4-by-tikigiki-173492</dc:source><dc:creator><cc:Agent><dc:title>TikiGiki</dc:title></cc:Agent></dc:creator><dc:subject><rdf:Bag><rdf:li>abstract</rdf:li><rdf:li>caption</rdf:li><rdf:li>comic</rdf:li><rdf:li>free form</rdf:li><rdf:li>freeform</rdf:li><rdf:li>headline</rdf:li><rdf:li>retro</rdf:li><rdf:li>shape</rdf:li><rdf:li>shapes</rdf:li><rdf:li>text</rdf:li></rdf:Bag></dc:subject></cc:Work><cc:License rdf:about="http://creativecommons.org/licenses/publicdomain/"><cc:permits rdf:resource="http://creativecommons.org/ns#Reproduction"/><cc:permits rdf:resource="http://creativecommons.org/ns#Distribution"/><cc:permits rdf:resource="http://creativecommons.org/ns#DerivativeWorks"/></cc:License></rdf:RDF></metadata></svg>
