<?xml version="1.0" encoding="UTF-8" standalone="no"?>
<!-- Created with Inkscape (http://www.inkscape.org/) -->
<svg xmlns:inkscape="http://www.inkscape.org/namespaces/inkscape" xmlns:rdf="http://www.w3.org/1999/02/22-rdf-syntax-ns#" xmlns="http://www.w3.org/2000/svg" xmlns:cc="http://creativecommons.org/ns#" xmlns:dc="http://purl.org/dc/elements/1.1/" xmlns:sodipodi="http://sodipodi.sourceforge.net/DTD/sodipodi-0.dtd" xmlns:svg="http://www.w3.org/2000/svg" xmlns:ns1="http://sozi.baierouge.fr" xmlns:xlink="http://www.w3.org/1999/xlink" id="svg3361" sodipodi:docname="Community_circle.svg" viewBox="0 0 313 313" version="1.1" inkscape:version="0.48.2 r9819">
  <sodipodi:namedview id="base" bordercolor="#666666" inkscape:pageshadow="2" inkscape:window-y="24" pagecolor="#ffffff" inkscape:window-height="744" inkscape:window-maximized="1" inkscape:zoom="0.54" inkscape:window-x="0" showgrid="false" borderopacity="1.0" inkscape:current-layer="g3568" inkscape:cx="775.76904" inkscape:cy="117.86596" inkscape:window-width="1366" inkscape:pageopacity="0.0" inkscape:document-units="px"/>
  <g id="layer1" inkscape:label="Layer 1" inkscape:groupmode="layer" transform="translate(137.98 -661.53)">
    <g id="g3568" transform="translate(-24.511 166.98)">
      <g id="g3365" transform="matrix(.42840 0 0 .42840 -81.178 507.09)">
        <g id="g3223" style="fill:#d44117" transform="translate(517.79 603.57)">
          <path id="path3627" sodipodi:rx="77.14286" sodipodi:ry="77.14286" style="color:#000000;fill:#d44117" sodipodi:type="arc" d="m354.29 212.36c0 42.605-34.538 77.143-77.143 77.143s-77.143-34.538-77.143-77.143 34.538-77.143 77.143-77.143 77.143 34.538 77.143 77.143z" transform="matrix(.99982 -.019076 .019076 .99982 -499.04 -749.14)" sodipodi:cy="212.36218" sodipodi:cx="277.14285"/>
          <path id="path3629" style="color:#000000;fill:#d44117" inkscape:connector-curvature="0" d="m-221.02-453.89c-93.98 1.7931-169.94 74.479-177.86 166.08l34.806-0.66407c8.1058-72.462 68.845-129.43 143.72-130.86 74.872-1.4285 137.77 53.182 148.64 125.28l34.806-0.66407c-11.414-91.232-90.121-160.97-184.1-159.17z"/>
          <path id="path3631" sodipodi:nodetypes="czzszzcc" style="color:#000000;fill:#d44117" inkscape:connector-curvature="0" d="m-220.56-456.06c-43.122 1.6745-76.167 206.13-75.41 286.91 0.7573 80.779 9.6386 43.829 18.63 14.264 8.9919-29.566 25.479-114.12 58.722-115.41 33.235-1.2906 57.016 80.404 66.576 109.31 9.5599 28.904 12.969 66.546 12.213-14.225-0.7558-80.771-37.61-282.52-80.732-280.85z"/>
        </g>
        <g id="g3292" transform="translate(513.79 603.57)">
          <path id="path3627-9-0" sodipodi:rx="77.14286" sodipodi:ry="77.14286" style="color:#000000;fill:#f2a438" sodipodi:type="arc" d="m354.29 212.36c0 42.605-34.538 77.143-77.143 77.143s-77.143-34.538-77.143-77.143 34.538-77.143 77.143-77.143 77.143 34.538 77.143 77.143z" transform="matrix(-.45622 -.48183 -.0087043 .99099 191.59 -458.69)" sodipodi:cy="212.36218" sodipodi:cx="277.14285"/>
          <path id="path3629-6-4" sodipodi:nodetypes="sccsccs" style="color:#000000;fill:#f2a438" inkscape:connector-curvature="0" d="m83.556-249.09c-13.411-48.39-78.685-67.13-149.7-45.05l4.9668 17.923c56.41-16.512 107.72-1.2004 118.41 37.355 10.684 38.556-53.565 93.918-107.27 120.2l4.9668 17.923c68.257-32.04 142.04-99.95 128.63-148.35z"/>
          <path id="path3631-2-5" sodipodi:nodetypes="czzszzcc" style="color:#000000;fill:#f2a438" inkscape:connector-curvature="0" d="m84.059-275.06c23.247 21.633 41.061 241.38 40.653 321.81-0.40826 80.429-5.1961 39.368-10.044 5.6406-4.8475-33.728-13.736-125.91-31.656-142.59-17.917-16.673-30.737 54.014-35.891 78.494-5.1537 24.479-6.9916 60.543-6.5841-19.878 0.40745-80.421 20.275-265.11 43.522-243.48z"/>
        </g>
        <g id="g3287" style="fill:#5775b1" transform="translate(-310.51 758.23)">
          <path id="path3627-9-0-8" sodipodi:rx="77.14286" sodipodi:ry="77.14286" style="color:#000000;fill:#5775b1" sodipodi:type="arc" d="m354.29 212.36c0 42.605-34.538 77.143-77.143 77.143s-77.143-34.538-77.143-77.143 34.538-77.143 77.143-77.143 77.143 34.538 77.143 77.143z" transform="matrix(.45622 -.48183 .0087043 .99099 196.06 -613.35)" sodipodi:cy="212.36218" sodipodi:cx="277.14285"/>
          <path id="path3629-6-4-6" sodipodi:nodetypes="sccsccs" style="color:#000000;fill:#5775b1" inkscape:connector-curvature="0" d="m304.09-403.75c13.411-48.395 78.686-67.132 149.7-45.05l-4.9668 17.923c-56.41-16.512-107.72-1.2004-118.41 37.355-10.684 38.556 53.565 93.918 107.27 120.2l-4.9668 17.923c-68.252-32.04-142.03-99.958-128.62-148.35z"/>
          <path id="path3631-2-5-8" sodipodi:nodetypes="czzszzcc" style="color:#000000;fill:#5775b1" inkscape:connector-curvature="0" d="m303.59-429.72c-23.247 21.633-41.061 241.38-40.653 321.81 0.40826 80.429 5.1961 39.368 10.044 5.6406 4.8475-33.728 13.736-125.91 31.656-142.59 17.917-16.673 30.737 54.014 35.891 78.494 5.1537 24.479 6.9916 60.543 6.5841-19.878-0.40745-80.421-20.275-265.11-43.522-243.48z"/>
        </g>
        <g id="g3334">
          <path id="path3627-7" sodipodi:rx="77.14286" sodipodi:ry="77.14286" style="color:#000000;fill:#6bb427" sodipodi:type="arc" d="m354.29 212.36c0 42.605-34.538 77.143-77.143 77.143s-77.143-34.538-77.143-77.143 34.538-77.143 77.143-77.143 77.143 34.538 77.143 77.143z" transform="matrix(.99982 -.019076 .019076 .99982 9.8101 63.55)" sodipodi:cy="212.36218" sodipodi:cx="277.14285"/>
          <path id="path3629-2" style="color:#000000;fill:#6bb427" inkscape:connector-curvature="0" d="m298.58 358.8c-93.185 1.5946-168.5 66.235-176.36 147.7l34.512-0.59056c8.0372-64.441 68.262-115.1 142.5-116.37 74.239-1.2704 136.6 47.295 147.38 111.41l34.512-0.59057c-11.31-81.14-89.35-143.15-182.54-141.56z"/>
          <path id="path3631-5" sodipodi:nodetypes="czzszzcc" style="color:#000000;fill:#6bb427" inkscape:connector-curvature="0" d="m288.29 356.63c-43.122 1.6745-76.167 206.13-75.41 286.91 0.7573 80.779 9.6386 43.829 18.63 14.264 8.9919-29.566 25.479-114.12 58.722-115.41 33.235-1.2906 57.016 80.404 66.576 109.31 9.5599 28.904 12.969 66.546 12.213-14.225-0.7558-80.771-37.61-282.52-80.732-280.85z"/>
        </g>
      </g>
    </g>
  </g>
  <metadata>
    <rdf:RDF>
      <cc:Work>
        <dc:format>image/svg+xml</dc:format>
        <dc:type rdf:resource="http://purl.org/dc/dcmitype/StillImage"/>
        <cc:license rdf:resource="http://creativecommons.org/licenses/publicdomain/"/>
        <dc:publisher>
          <cc:Agent rdf:about="http://openclipart.org/">
            <dc:title>Openclipart</dc:title>
          </cc:Agent>
        </dc:publisher>
        <dc:title>Community circle</dc:title>
        <dc:date>2012-01-31T19:44:46</dc:date>
        <dc:description>Representation of four people holding hands and forming a circle</dc:description>
        <dc:source>https://openclipart.org/detail/167580/community-circle-by-josephluis</dc:source>
        <dc:creator>
          <cc:Agent>
            <dc:title>josephluis</dc:title>
          </cc:Agent>
        </dc:creator>
        <dc:subject>
          <rdf:Bag>
            <rdf:li>being</rdf:li>
            <rdf:li>circle</rdf:li>
            <rdf:li>community</rdf:li>
            <rdf:li>doll</rdf:li>
            <rdf:li>hands</rdf:li>
            <rdf:li>holding</rdf:li>
            <rdf:li>human</rdf:li>
            <rdf:li>man</rdf:li>
            <rdf:li>mankind</rdf:li>
            <rdf:li>men</rdf:li>
            <rdf:li>people</rdf:li>
          </rdf:Bag>
        </dc:subject>
      </cc:Work>
      <cc:License rdf:about="http://creativecommons.org/licenses/publicdomain/">
        <cc:permits rdf:resource="http://creativecommons.org/ns#Reproduction"/>
        <cc:permits rdf:resource="http://creativecommons.org/ns#Distribution"/>
        <cc:permits rdf:resource="http://creativecommons.org/ns#DerivativeWorks"/>
      </cc:License>
    </rdf:RDF>
  </metadata>
</svg>
