<?xml version="1.0" encoding="UTF-8" standalone="no"?>
<svg xmlns:dc="http://purl.org/dc/elements/1.1/" xmlns:cc="http://creativecommons.org/ns#" xmlns:rdf="http://www.w3.org/1999/02/22-rdf-syntax-ns#" xmlns:svg="http://www.w3.org/2000/svg" xmlns="http://www.w3.org/2000/svg" version="1.1" id="svg11896" viewBox="0 0 1096.7146 1224.8749" height="1224.8749" width="1096.7146">
  <defs id="defs11898"/>
  <metadata id="metadata11901">
    <rdf:RDF>
      <cc:Work rdf:about="">
        <dc:format>image/svg+xml</dc:format>
        <dc:type rdf:resource="http://purl.org/dc/dcmitype/StillImage"/>
        <dc:title/>
      </cc:Work>
    </rdf:RDF>
  </metadata>
  <g transform="translate(273.71177,119.35509)" id="layer1">
    <g id="g12482">
      <rect style="opacity:1;fill:#f8f8f8;fill-opacity:1;stroke:none;stroke-width:4.73225594;stroke-linecap:round;stroke-linejoin:round;stroke-miterlimit:4;stroke-dasharray:none;stroke-opacity:1" id="rect12471" width="831.69635" height="443.12491" x="-122.99101" y="437.9426"/>
      <path id="path12469" d="M 213.17576,1102.3433 C 51.043094,1085.5134 -97.411689,999.90595 -187.26672,871.42536 -286.51575,729.51187 -301.56152,540.26968 -225.87631,385.7979 -179.21628,290.56603 -99.283154,208.68817 -1.1326015,155.58621 22.178728,142.97402 26.356465,139.35994 27.768792,130.58314 39.231738,59.340516 49.780287,24.406202 71.471231,-14.153475 c 16.43871,-29.222822 57.834879,-68.544785 87.045189,-82.683871 53.77562,-26.029684 120.11585,-29.475774 200.67984,-10.424474 123.14751,29.121076 196.71158,116.7932167 204.72359,243.98474 1.43137,22.71893 2.72662,26.89946 9.65566,31.15925 132.71747,81.59179 221.11891,209.16848 244.32128,352.59158 6.85357,42.36369 6.80209,108.12606 -0.1199,151.47547 C 774.74165,941.5182 506.10542,1132.7504 213.17435,1102.3433 Z M 58.013748,843.75955 c 0,-23.73243 14.026293,-44.51018 35.678447,-52.85187 12.650645,-4.87384 12.657695,-5.46908 0.83858,-71.07148 -6.347184,-35.23016 -9.348159,-64.12279 -9.39506,-90.44938 -0.05995,-34.07418 -0.734904,-38.41152 -5.660945,-36.40194 -17.342176,7.07492 -54.925942,11.67848 -71.0839502,8.70694 -16.9183018,-3.11137 -17.2018251,-3.02123 -31.2901828,9.95282 -44.02299,40.54062 -62.658301,94.02512 -66.22879,190.08238 l -2.042496,54.93869 74.592374,0 74.592023,0 0,-12.90616 z M 388.29937,832.2195 c 4.54836,-12.5434 7.37795,-25.41995 6.28794,-28.61452 -5.9889,-17.54978 26.41633,-46.21538 57.07917,-50.49213 l 15.41076,-2.14947 -0.26096,-49.64637 c -0.14458,-27.30551 -1.33404,-56.19663 -2.6448,-64.2025 -2.14159,-13.07819 -3.58636,-14.84548 -14.23083,-17.40654 -15.41041,-3.70766 -16.98918,-1.68922 -7.93266,10.14067 10.29077,13.44151 9.55446,15.7676 -7.54969,23.85693 -29.59292,13.99595 -57.819,33.91692 -87.96663,62.084 l -30.66248,28.64811 6.98828,17.10565 c 9.53859,23.34913 17.29069,55.38698 13.87642,57.34956 -1.54069,0.88567 -4.86821,-3.03118 -7.39453,-8.70413 -7.52147,-16.88871 -36.07093,-55.38616 -57.59296,-77.66044 -28.81253,-29.81983 -56.05087,-51.21542 -89.38637,-70.21259 -29.42612,-16.76932 -34.55881,-23.66208 -23.80326,-31.96461 6.09434,-4.70416 7.07891,-13.11969 1.5354,-13.11969 -2.06472,0 -11.67136,3.16782 -21.34783,7.03957 -23.49787,9.40189 -26.14374,6.42714 -19.16815,-21.54974 3.01967,-12.11029 7.19106,-24.97424 9.26952,-28.58659 3.65477,-6.35173 3.48691,-6.38971 -5.10307,-1.15482 -19.71368,12.01412 -20.7307,57.41112 -3.50877,156.61789 8.25179,47.53312 11.2503,58.58563 16.30188,60.08521 9.70468,2.88089 27.05144,17.64339 32.72684,27.85152 2.83982,5.1074 5.16302,16.0236 5.16302,24.25824 l 0,14.97209 102.82234,-0.86954 102.82199,-0.86951 8.26978,-22.80625 z m 164.51687,-0.4215 c -12.17105,-33.66905 -27.24186,-48.40144 -54.95345,-53.71856 -22.53375,-4.32356 -36.15063,-2.70547 -57.23362,6.80092 -16.9846,7.65836 -27.31416,21.93189 -36.51456,50.455 l -6.88003,21.33035 82.28559,0 82.28559,0 -8.98952,-24.86771 z m 145.94751,19.41766 c 3.60716,-8.7427 -5.36544,-118.79292 -11.5892,-142.14642 -7.86812,-29.52369 -29.72586,-70.84628 -47.29302,-89.40853 -8.09347,-8.55194 -16.27333,-15.54896 -18.17723,-15.54896 -1.90427,0 -9.18877,4.0589 -16.18834,9.01978 -11.45836,8.12125 -15.5624,9.01851 -41.19975,9.00706 -26.1381,-0.0131 -30.48016,-1.01602 -52.92682,-12.24214 -13.44902,-6.72617 -24.68169,-11.88631 -24.96133,-11.467 -0.27859,0.41933 0.67989,13.30811 2.13242,28.64175 1.45252,15.33363 2.76717,49.64981 2.92127,76.25818 0.26096,45.01771 0.73949,48.37884 6.8899,48.37884 12.19891,0 37.27803,10.0137 47.55258,18.98697 11.04894,9.6495 21.33125,28.67308 18.11446,33.51401 -1.1013,1.65738 1.62532,14.1243 6.05907,27.70425 l 8.06137,24.69086 59.17809,0.0295 c 51.92708,0.0262 59.4535,-0.63709 61.42653,-5.41935 z" style="fill:#bacbc2"/>
      <path id="path12467" d="m 213.17576,1100.7076 c -4.84881,-0.8126 -23.09798,-3.7908 -40.55371,-6.6182 C 82.713424,1079.5264 -7.4850754,1039.3402 -82.060171,980.62067 -126.4284,945.6859 -185.16886,880.81564 -179.77909,872.70456 c 1.58371,-2.38355 1.12104,-3.07509 -1.1743,-1.75551 -5.10412,2.93399 -35.45487,-47.35581 -51.91932,-86.02795 -72.48958,-170.26447 -42.4883,-361.94256 79.00991,-504.79998 8.49653,-9.98998 16.38158,-16.36795 18.6346,-15.07284 2.3098,1.32787 2.91352,0.75235 1.47757,-1.40876 -1.33545,-2.00964 3.4714,-9.72707 10.68114,-17.14986 20.68733,-21.29784 75.316698,-62.58031 79.574132,-60.13293 2.122546,1.22019 2.904704,0.78173 1.737815,-0.97434 -1.166889,-1.7561 12.473263,-11.64916 30.311252,-21.98462 l 32.43274,-18.79172 2.146878,61.65685 c 1.779073,51.10223 3.432254,65.02569 9.657777,81.33641 7.657246,20.06263 7.596591,19.22165 -1.301597,-18.03957 C 28.196898,255.77076 26.384324,229.12438 26.358228,194.12155 26.294753,108.21168 38.335678,49.531418 67.218734,-4.9943921 119.95936,-104.55848 221.12182,-139.99626 359.19626,-107.27586 c 87.58508,20.755573 149.87205,70.369011 181.75714,144.774656 14.44558,33.710214 20.54733,65.459004 23.79621,123.823534 2.33025,41.85452 3.14203,46.93401 4.5935,28.74304 l 1.76321,-22.09579 31.73768,21.78731 c 180.91009,124.19118 260.40347,344.91206 197.23772,547.64831 -22.60569,72.55479 -59.6873,135.11201 -115.51953,194.88173 -30.21886,32.34983 -91.56428,80.35717 -97.97494,76.67217 -2.56652,-1.4754 -3.30601,-1.0428 -1.88169,1.1008 2.86203,4.307 -38.69071,28.8796 -75.35232,44.5605 -77.07567,32.9666 -135.0784,45.0139 -223.88609,46.5014 -34.91145,0.5848 -67.44258,0.3984 -72.29139,-0.4142 z m 262.47912,-87.7024 c 4.72856,-12.2876 -5.43455,-22.01824 -22.34827,-21.39725 l -12.67744,0.46542 13.74559,1.99452 c 17.18842,2.49409 22.74675,9.67871 16.83049,21.75591 -3.84237,7.8433 -5.72265,8.5916 -17.44127,6.9404 -7.2242,-1.0179 -19.48235,-2.5773 -27.24045,-3.4654 -14.06826,-1.6105 -14.07284,-1.6073 -1.7632,1.2138 6.78833,1.5557 17.10308,4.2612 22.92166,6.0122 12.9123,3.8859 23.18579,-1.0793 27.97289,-13.5196 z m 28.44966,11.52 c -5.81858,-0.6402 -12.95956,-2.8529 -15.86885,-4.9171 -3.15084,-2.2355 -2.75835,-0.9822 0.97012,3.0996 4.63229,5.071 8.75819,6.3494 15.86884,4.917 l 9.60911,-1.9356 -10.57922,-1.1639 z m 31.14983,-3.9136 c 6.14195,-0.026 13.54741,-1.5016 16.45669,-3.2754 3.7655,-2.2959 1.73359,-2.6917 -7.05282,-1.3737 -25.41835,3.813 -28.5223,4.8577 -25.94661,8.7338 1.9367,2.9149 2.89377,2.8917 3.96439,-0.096 0.77651,-2.1661 6.43675,-3.961 12.57835,-3.9886 z m -135.17891,-7.7987 c 0,-0.709 -2.46284,-2.168 -5.47264,-3.2424 -3.1385,-1.12 -4.554,-0.5702 -3.31835,1.2891 2.07071,3.1166 8.79099,4.6097 8.79099,1.9533 z m 88.97166,-14.29058 c 4.25814,-4.87839 29.57071,-5.51332 32.68946,-0.81998 1.19863,1.80396 4.86292,3.27086 8.14248,3.25976 3.77291,-0.013 2.25303,-1.81994 -4.13753,-4.91993 -21.23146,-10.29892 -45.06963,-3.52027 -44.14959,12.55423 0.38085,6.6531 0.52861,6.6935 2.14265,0.5857 0.95354,-3.6079 3.34409,-8.4048 5.31253,-10.65978 z m 80.74596,9.83978 c 4.47678,-5.3094 4.31068,-5.379 -2.21317,-0.9281 -3.87905,2.6464 -7.71402,5.2294 -8.52228,5.7398 -0.8079,0.5105 0.1869,0.9281 2.21318,0.9281 2.02521,0 5.86018,-2.5829 8.52227,-5.7398 z m -194.40249,1.2216 c 0,-0.6811 -2.77704,-3.2641 -6.17121,-5.7399 -5.59324,-4.0798 -5.71772,-3.96379 -1.33158,1.2384 4.60691,5.4635 7.50279,7.201 7.50279,4.5015 z m 7.05282,-6.5599 c 0,-0.6811 -2.77705,-3.264 -6.17121,-5.73985 -5.59324,-4.07979 -5.71772,-3.96378 -1.33158,1.23837 4.6069,5.46348 7.50279,7.20098 7.50279,4.50148 z m 37.83555,-7.30309 c -1.17182,-1.08989 -4.21335,-1.20639 -6.75906,-0.25879 -2.81302,1.04702 -1.97762,1.82423 2.13065,1.9816 3.71719,0.14235 5.80024,-0.6328 4.62841,-1.72268 z m 135.07383,-2.99378 c 10.12749,-4.87098 21.22228,-20.01809 20.86153,-28.48091 -0.0987,-2.34452 -2.7245,1.44599 -5.83268,8.42337 -4.18761,9.40127 -9.39083,14.26595 -20.09489,18.78749 -7.94465,3.35578 -12.38228,6.13381 -9.86125,6.17343 2.52067,0.0397 9.23813,-2.16691 14.92729,-4.90338 z m -185.79805,-6.64578 c -1.14855,-2.78373 -2.84476,-4.3579 -3.76903,-3.49813 -0.92427,0.85976 -0.6344,3.13737 0.64392,5.06134 3.47704,5.23298 5.50967,4.21637 3.12511,-1.56321 z m 27.0994,-1.31584 c -2.01817,-3.50745 -5.49309,-7.42538 -7.72178,-8.70655 -2.71534,-1.56092 -3.10959,-0.80962 -1.1951,2.27725 7.56344,12.19475 15.54617,17.95065 8.91688,6.4293 z m 199.70938,-14.12232 c -0.97823,-2.25495 -1.77872,-0.40999 -1.77872,4.0999 0,4.50989 0.80049,6.35485 1.77872,4.0999 0.97822,-2.25495 0.97822,-5.94486 0,-8.1998 z M 384.8523,964.28814 c -1.12563,-2.61649 -1.96139,-1.83932 -2.1303,1.98163 -0.15164,3.45756 0.68024,5.39478 1.85207,4.30489 1.17182,-1.08988 1.29701,-3.91885 0.27859,-6.28652 z m -24.54275,-26.44437 c -0.78216,-5.86286 -1.4222,-1.06597 -1.4222,10.65974 0,11.72572 0.64004,16.52261 1.4222,10.65975 0.78216,-5.86286 0.78216,-15.45663 0,-21.31949 z m 239.73342,6.55984 c -0.84034,-4.0589 -1.52799,-0.73798 -1.52799,7.37983 0,8.1178 0.68765,11.43872 1.52799,7.37982 0.8407,-4.0589 0.8407,-10.70074 0,-14.75965 z m -24.67922,-13.08144 c -0.84352,-4.07993 -1.56573,-1.51421 -1.60487,5.70162 -0.0388,7.21583 0.65098,10.55397 1.53364,7.41807 0.88266,-3.1359 0.91439,-9.03976 0.0705,-13.11969 z M 384.8523,928.209 c -1.12563,-2.61649 -1.96139,-1.83931 -2.1303,1.98163 -0.15164,3.45756 0.68024,5.39478 1.85207,4.3049 1.17182,-1.08989 1.29701,-3.91885 0.27859,-6.28653 z m 215.92663,-20.70451 c 0.1058,-1.80395 -1.34426,-1.06597 -3.22454,1.63997 -1.88029,2.70593 -3.33105,7.13383 -3.22455,9.83976 0.20453,5.1949 6.082,-5.26683 6.44909,-11.47973 z m -237.08508,4.3049 c -1.12563,-2.61649 -1.96139,-1.83931 -2.13031,1.98163 -0.15163,3.45756 0.68025,5.39478 1.85207,4.3049 1.17183,-1.08989 1.29702,-3.91885 0.27859,-6.28653 z m 24.68486,-3.27992 c -1.12563,-2.61649 -1.96139,-1.83931 -2.1303,1.98163 -0.15164,3.45756 0.68024,5.39478 1.85207,4.3049 1.17182,-1.08989 1.29701,-3.91885 0.27858,-6.28653 z m 183.37329,0 c -1.12563,-2.61649 -1.96139,-1.83931 -2.1303,1.98163 -0.15164,3.45756 0.68024,5.39478 1.85207,4.3049 1.17182,-1.08989 1.29701,-3.91885 0.27858,-6.28653 z m 21.15846,-13.11969 c -1.12563,-2.61649 -1.96139,-1.83931 -2.13031,1.98163 -0.15163,3.45757 0.68025,5.39479 1.85207,4.3049 1.17183,-1.08988 1.29702,-3.91885 0.27859,-6.28653 z m -225.6902,-3.27992 c -1.12563,-2.61649 -1.96139,-1.83931 -2.13031,1.98163 -0.15163,3.45756 0.68025,5.39478 1.85207,4.3049 1.17183,-1.08989 1.29702,-3.91885 0.27859,-6.28653 z m 24.61151,-3.48491 c -0.97822,-2.25495 -1.77872,-0.40999 -1.77872,4.0999 0,4.50989 0.8005,6.35485 1.77872,4.0999 0.97823,-2.25495 0.97823,-5.94486 0,-8.1998 z m 176.39382,3.48491 c -1.12563,-2.61649 -1.96139,-1.83931 -2.1303,1.98163 -0.15164,3.45756 0.68024,5.39478 1.85207,4.3049 1.17182,-1.08989 1.29701,-3.91885 0.27858,-6.28653 z M 370.74667,879.01018 c -1.12563,-2.6165 -1.96139,-1.83932 -2.13031,1.98163 -0.15163,3.45756 0.68025,5.39478 1.85207,4.30489 1.17183,-1.08988 1.29701,-3.91885 0.27859,-6.28652 z m 218.63738,0 c -1.12563,-2.6165 -1.96139,-1.83932 -2.13031,1.98163 -0.15163,3.45756 0.68025,5.39478 1.85207,4.30489 1.17183,-1.08988 1.29702,-3.91885 0.27859,-6.28652 z m -465.20887,1.64133 c -3.3716,-0.82093 -9.71913,-0.85071 -14.10563,-0.0663 -4.38686,0.78452 -1.62815,1.45622 6.12995,1.49263 7.7581,0.0364 11.34728,-0.60551 7.97568,-1.42644 z m 357.35787,-20.70588 c 44.41653,0 80.75724,-1.18936 80.75724,-2.64306 0,-1.45366 -3.41638,-12.0524 -7.59201,-23.55275 -15.43544,-42.51189 -33.81156,-56.78952 -73.62402,-57.20298 -31.19391,-0.32406 -48.94268,7.38097 -62.59271,27.17201 -11.0768,16.0606 -20.01519,41.46356 -23.24609,66.06655 l -1.93846,14.75964 3.73975,-12.2997 3.73941,-12.29971 80.75689,0 z m -393.897463,8.5278 c -9.797776,-9.11303 -11.989792,-13.64959 -11.989792,-24.81504 0,-15.46184 4.451739,-25.27668 15.399829,-33.95168 l 7.521832,-5.96001 -7.753517,3.52542 c -12.475026,5.6722 -18.694554,16.85385 -18.694554,33.60966 0,12.72242 1.993479,17.66733 10.944564,27.14951 6.019581,6.37663 12.20843,11.59387 13.752997,11.59387 1.544567,0 -2.586974,-5.01828 -9.181359,-11.15173 z m 72.420463,-17.59934 c -0.15517,-3.9158 -1.31853,-3.13374 -3.73835,2.51003 -1.93283,4.50897 -6.19625,11.22189 -9.47405,14.91764 -3.27745,3.69575 -1.59535,2.56624 3.73834,-2.51 5.3337,-5.07627 9.59713,-11.78918 9.47406,-14.91767 z m -98.515893,-7.49095 c 0,-18.44362 5.381653,-30.34216 19.125129,-42.28475 13.086152,-11.37096 51.424574,-12.80642 67.818844,-2.53921 16.48526,10.3243 23.1336,23.01412 22.86842,43.65067 l -0.22922,17.83303 104.45295,-0.86862 104.45295,-0.86859 8.36253,-22.95945 c 4.5995,-12.6277 8.14072,-25.91138 7.86953,-29.51929 -1.00608,-13.38343 0.50358,-17.77498 9.54705,-27.77149 10.76472,-11.89871 29.57353,-21.54683 48.41408,-24.83429 l 13.26529,-2.31468 -1.08684,-63.29199 c -0.59772,-34.81059 -2.08058,-64.21263 -3.29507,-65.33784 -1.21415,-1.12518 -7.95841,-2.91378 -14.98724,-3.97467 -14.87369,-2.24495 -16.4701,1.73029 -5.7745,14.37727 3.8526,4.55545 6.32603,9.30392 5.49697,10.55216 -0.82941,1.24821 -15.41817,10.1755 -32.41934,19.83845 -28.10231,15.97236 -88.92441,65.71306 -96.54286,78.95306 -1.9487,3.38671 -0.1199,12.703 5.16865,26.32317 4.50182,11.59469 9.32242,27.72308 10.71253,35.84088 l 2.52773,14.75965 -17.32701,-26.57832 C 280.20716,731.38861 224.01348,680.03527 168.21369,653.69275 c -16.73246,-7.8993 -17.93814,-11.44634 -7.93442,-23.34163 3.79265,-4.50989 6.93116,-9.30678 6.97453,-10.65975 0.14458,-4.52691 -15.63187,-2.38279 -31.38892,4.266 -11.2221,4.73542 -16.30048,5.52477 -18.10177,2.81378 -2.74989,-4.13841 5.06005,-38.96065 11.08739,-49.43583 5.7484,-9.98995 1.18769,-10.99289 -8.59845,-1.89088 -16.70354,15.53604 -16.92324,70.96481 -0.61359,154.77501 11.61105,59.66535 11.60118,59.99423 -1.82139,59.55711 -7.7574,-0.25255 -11.09515,-2.16389 -12.06526,-6.90909 -3.34621,-16.36762 -19.411121,-119.93318 -21.114377,-136.11674 -1.04417,-9.92177 -0.57022,-26.63785 1.053339,-37.14689 2.846517,-18.42276 2.687829,-19.03502 -4.428113,-17.0896 -33.134848,9.05878 -57.036145,11.72965 -74.0803397,8.27823 l -17.9339073,-3.6316 -17.708923,17.58389 c -22.225195,22.06833 -41.25229,55.46062 -50.943216,89.4046 -7.778201,27.24401 -17.612299,139.55951 -13.163733,150.34209 2.001942,4.85196 10.63424,5.45418 78.178733,5.45418 l 75.928531,0 0,-16.56249 z M 698.76798,798.4471 C 695.68237,705.469 683.1816,666.49477 640.98882,618.30974 c -12.85976,-14.68618 -14.14161,-17.5097 -9.55551,-21.04975 2.91316,-2.24865 7.06128,-7.15518 9.21803,-10.90344 2.15675,-3.74823 -3.85119,0.41442 -13.35134,9.25033 -29.12038,27.08484 -54.69214,33.60457 -91.69934,23.37934 -9.56468,-2.64276 -25.15317,-9.38487 -34.64133,-14.98248 l -17.25049,-10.17747 2.23434,12.52255 c 1.22895,6.88741 3.28837,42.28976 4.57657,78.67193 l 2.34224,66.14933 12.50994,2.18286 c 18.12927,3.16332 37.04034,12.96549 47.65872,24.7025 9.01244,9.9622 10.76189,14.98848 9.42186,27.07345 -0.55753,5.0292 12.0046,45.16656 16.38687,52.3568 0.82447,1.35297 28.60517,2.45994 61.73438,2.45994 l 60.2353,0 -2.04108,-61.49853 z m -537.46535,31.97471 c 1.01525,-3.61041 0.4066,-5.73724 -1.35202,-4.7263 -1.75862,1.01094 -3.1974,3.9649 -3.1974,6.56437 0,6.78862 2.3962,5.82052 4.54942,-1.83807 z m -6.06084,-12.95897 c 0,-3.52201 -0.67107,-5.77958 -1.49096,-5.0168 -0.82025,0.76278 -5.88241,-1.52143 -11.2496,-5.07608 -5.3672,-3.55461 -11.89388,-6.4293 -14.50377,-6.38823 -2.6099,0.041 0.47994,2.46994 6.86627,5.39744 6.38633,2.92752 13.18666,8.05978 15.11137,11.40504 4.42212,7.68489 5.26669,7.63333 5.26669,-0.32143 z m -34.70762,-18.53743 c -1.17183,-1.08988 -4.21336,-1.20639 -6.75907,-0.25878 -2.81302,1.04701 -1.97761,1.82422 2.13065,1.98159 3.71719,0.14235 5.80024,-0.63279 4.62842,-1.72268 z M 312.04711,706.6093 c 6.5489,-8.5688 23.28418,-28.86331 37.18916,-45.09893 37.07702,-43.29043 50.83919,-73.04401 50.83919,-109.91345 l 0,-18.525 -20.27685,9.27247 c -43.76133,20.01172 -112.49529,21.08793 -154.05473,2.41209 -7.64102,-3.43375 -14.3881,-6.24317 -14.99358,-6.24317 -3.18541,0 -0.3597,46.57355 3.68122,60.67855 6.85569,23.92943 14.24105,35.66177 45.15955,71.73911 15.2623,17.80902 30.44737,36.62757 33.74456,41.819 3.29684,5.19142 6.17686,9.43895 6.39973,9.43895 0.22216,0 5.76321,-7.01083 12.31175,-15.57962 z M -50.854974,631.1711 c 4.386148,-5.20215 4.261666,-5.31816 -1.331572,-1.23837 -3.394169,2.47585 -6.171217,5.05879 -6.171217,5.73987 0,2.6995 2.895888,0.96203 7.502789,-4.5015 z m 27.761305,-28.3484 c 0,-0.70898 -2.462844,-2.16802 -5.472634,-3.24236 -3.138505,-1.12006 -4.554005,-0.57022 -3.318352,1.28904 2.070708,3.11661 8.790986,4.60977 8.790986,1.95332 z m -11.008039,-19.21046 c -10.96537,-8.34111 -23.040149,-21.84353 -30.064404,-33.6192 -6.456855,-10.82374 -11.743648,-18.20356 -11.748585,-16.39961 0,5.11009 19.483059,35.16693 28.681345,44.21561 4.549069,4.47503 7.834977,9.38162 7.301784,10.90354 -0.532841,1.52188 0.423522,1.96667 2.125367,0.98837 1.701845,-0.97827 6.105272,0.34105 9.785081,2.93183 15.571918,10.96323 10.711821,3.75334 -6.080588,-9.02054 z M 654.95657,563.71223 c 2.37292,-14.47954 1.02196,-14.28589 -5.3344,0.76475 -4.14353,9.81188 -4.36358,12.52533 -0.9151,11.29451 2.49635,-0.89099 5.30866,-6.31766 6.2495,-12.05926 z m 9.39929,-20.39419 c 2.90753,1.67132 1.3954,-27.74604 -1.56784,-30.50212 -0.96694,-0.89942 -1.77978,3.40761 -1.80658,9.5711 -0.0353,6.16353 -0.83752,14.89632 -1.80199,19.40622 -0.96483,4.50989 -0.8079,6.34566 0.34911,4.07946 1.15666,-2.26619 3.32893,-3.41577 4.82695,-2.55466 z M -78.997132,515.09356 c -2.415943,-7.80805 -3.502077,-8.94691 -3.727414,-3.90786 -0.356873,7.97736 3.262986,18.53018 5.608049,16.34903 0.841048,-0.78197 0,-6.3805 -1.880635,-12.44117 z m 650.985052,1.47928 c -3.39417,-0.82497 -8.94827,-0.82497 -12.34244,0 -3.39416,0.825 -0.61712,1.5 6.17122,1.5 6.78834,0 9.56539,-0.675 6.17122,-1.5 z m 35.43935,-2.36611 c 17.52026,-8.51326 43.0296,-41.18581 43.02044,-55.10084 -10e-4,-2.32681 -4.59703,4.80193 -10.21213,15.84166 -11.51408,22.63743 -28.9691,37.14029 -49.07986,40.77985 -11.20693,2.02814 -11.63716,2.40396 -3.1237,2.72919 5.42997,0.20762 14.15783,-1.705 19.39525,-4.24986 z m -64.53223,-6.75099 c -5.81858,-4.43606 -8.99234,-8.14126 -7.05282,-8.23375 1.93953,-0.0925 1.34321,-1.45445 -1.32522,-3.02658 -2.66879,-1.5721 -6.92552,-10.0363 -9.45995,-18.80931 -2.53408,-8.77303 -4.71481,-12.98927 -4.84564,-9.36945 -0.63934,17.67841 17.92686,47.57129 29.51464,47.52091 2.06154,-0.01 -1.01243,-3.64579 -6.83101,-8.08182 z m -626.686325,-31.57876 -1.079434,-24.28159 -1.730762,26.91107 c -0.951778,14.80111 -0.466191,25.7278 1.079434,24.28159 1.545625,-1.44622 2.324257,-13.55618 1.730762,-26.91107 z m 68.610174,24.37815 c -2.436749,-0.91362 -3.544394,-2.99414 -2.461787,-4.62338 1.082608,-1.6292 -0.575157,-2.05438 -3.683687,-0.94485 -10.672678,3.80914 -26.098251,-14.33129 -40.826299,-48.01139 -3.549684,-8.11781 -6.527032,-12.5457 -6.61625,-9.83976 -0.183373,5.59177 18.244232,41.6673 25.209596,49.34933 7.194228,7.93505 21.496639,16.27498 27.421712,15.99015 3.657239,-0.17581 3.964389,-0.7922 0.956715,-1.9201 z m 53.45014,-7.45992 c 16.863289,-9.69355 26.220617,-29.30689 28.268755,-59.2528 1.718067,-25.12505 1.360136,-24.19867 -5.202864,13.4603 -2.773874,15.91792 -6.587333,24.82327 -14.409614,33.64967 -5.850666,6.60163 -11.961228,11.24206 -13.579145,10.31211 -1.617564,-0.92999 -3.478803,-0.19089 -4.135773,1.64242 -0.657322,1.83331 -8.330437,4.75382 -17.0516,6.49005 l -15.8572049,3.15679 14.8881479,-1.22528 c 8.188323,-0.67389 20.374183,-4.37886 27.079298,-8.23326 z M 664.05259,468.36953 c -1.5428,-5.20589 -3.90056,-10.37176 -5.23918,-11.47972 -1.33863,-1.10799 -1.38765,0.68914 -0.10932,3.99363 1.27903,3.30446 2.4833,12.16025 2.67654,19.67953 0.28917,11.2931 0.79732,12.24493 2.91423,5.4716 1.4095,-4.50989 1.30054,-12.45918 -0.24332,-17.66504 z M 520.6642,450.77541 c -1.02195,-4.96088 -2.53831,-7.12612 -3.37019,-4.81168 -1.50013,4.1737 1.18347,13.83147 3.84273,13.83147 0.76171,0 0.54906,-4.05891 -0.47254,-9.01979 z M -80.598827,437.71814 c -0.894297,-3.19126 -1.684565,-1.37438 -1.756504,4.03749 -0.07053,5.41187 0.659791,8.02288 1.625674,5.80228 0.966237,-2.22061 1.024775,-6.6485 0.130478,-9.83977 z M 524.4565,412.23633 c 1.16513,-13.92589 0.82554,-19.08793 -0.86361,-13.11968 -2.82148,9.96899 -4.69436,39.95908 -2.33837,37.44578 0.70458,-0.75166 2.14547,-11.6984 3.20198,-24.3261 z m -601.847352,5.49115 c -5.310067,-4.93917 -5.408102,-4.67422 -1.290666,3.49482 2.450149,4.86153 5.035713,7.2665 5.745932,5.34434 0.709866,-1.92217 -1.294898,-5.89979 -4.455266,-8.83916 z M 61.649476,377.09401 c -2.396548,-12.47312 -5.115057,-21.97367 -6.041092,-21.11227 -0.926388,0.86137 0.368157,12.92598 2.876492,26.81025 2.508335,13.88423 5.226844,23.38475 6.041444,21.11226 0.814248,-2.27249 -0.480297,-14.33709 -2.876844,-26.81024 z m 471.660784,-14.0565 c 0.0529,-5.14029 -0.54518,-4.78537 -2.75765,1.63996 -1.55303,4.50989 -2.79362,11.88972 -2.75765,16.39961 0.0599,7.36539 0.33853,7.19851 2.75765,-1.63996 1.48038,-5.41187 2.72168,-12.7917 2.75765,-16.39961 z m 10.08765,-32.63279 c 0.74513,-5.32036 2.52385,-10.48624 3.9524,-11.47973 1.42854,-0.99352 2.93644,-7.71024 3.35044,-14.92607 0.5406,-9.42607 -1.6687,-4.80902 -7.84767,16.39961 -4.72998,16.23561 -8.53885,30.99526 -8.46339,32.79921 0.24333,5.82961 7.60999,-12.81206 9.00822,-22.79302 z M 48.977323,328.80333 c -3.32893,-11.03481 -6.687482,-19.4727 -7.463645,-18.75089 -0.77581,0.72181 1.293487,10.35891 4.598438,21.41582 3.304951,11.05691 6.663856,19.49481 7.463645,18.75089 0.79979,-0.74392 -1.269507,-10.38102 -4.598438,-21.41582 z M 558.51598,269.83306 c 0.35828,-11.46074 -1.99772,-7.30219 -4.49089,7.92649 -1.4966,9.14376 -1.17923,11.13172 1.0477,6.55984 1.75756,-3.60791 3.30707,-10.12676 3.44319,-14.48633 z m 7.40334,-37.99241 c 1.16548,-5.21833 0.0353,-19.2723 -1.43172,-17.76626 -0.73067,0.75166 -2.22799,11.6984 -3.32682,24.3261 -1.89579,21.78616 -1.42784,21.1408 4.75854,-6.55984 z" style="fill:#b6c7bd"/>
      <path id="path12465" d="m 438.86596,1020.3833 c -4.84881,-1.5734 -17.77204,-5.1019 -28.71837,-7.8413 -54.36348,-13.60471 -61.2823,-71.23706 -21.3577,-177.90454 5.5474,-14.82144 8.90912,-28.71991 7.46999,-30.88545 -3.43542,-5.17043 2.33978,-18.94108 11.98486,-28.57598 9.76216,-9.75206 24.53076,-16.93591 44.72686,-21.75648 l 15.86884,-3.78772 -1.05757,-55.54045 c -1.26739,-66.57946 -2.21458,-72.30922 -12.36782,-74.84165 -18.73405,-4.67254 -27.09164,1.60241 -14.78588,11.10139 9.61616,7.42279 6.10104,15.88322 -9.69763,23.34163 -31.27255,14.76345 -66.24148,40.85644 -98.9916,73.86468 l -16.71659,16.84824 8.65628,24.15078 c 4.76065,13.28293 9.6807,30.05465 10.93363,37.27048 l 2.27735,13.11968 -10.52104,-17.22759 C 288.5376,739.44433 226.40861,680.40722 171.92065,654.76574 161.63905,649.92733 153.2268,644.53245 153.2268,642.7771 c 0,-1.75531 3.17377,-6.94428 7.05282,-11.53099 3.87905,-4.58671 7.05282,-9.6164 7.05282,-11.17709 0,-5.0924 -17.59784,-2.98718 -31.94786,3.82193 -13.07205,6.20276 -14.1945,6.27161 -16.36818,1.00346 -2.10174,-5.09434 4.67672,-35.14751 11.71544,-51.94192 2.62858,-6.27232 2.37045,-6.32884 -5.89158,-1.28911 -4.75254,2.89893 -10.53479,10.27875 -12.84988,16.39961 -7.66465,20.26644 -5.35838,71.63877 5.97233,133.0189 5.81857,31.5206 10.57923,59.42411 10.57923,62.0078 0,3.017 -3.72777,4.69767 -10.41949,4.69767 -9.00891,0 -10.68008,-1.44297 -12.34666,-10.65975 C 87.036802,673.4794 85.772232,663.443 86.860129,627.03167 l 1.128098,-37.75862 -18.889917,5.93686 c -25.787574,8.10472 -62.6279728,7.93626 -82.838178,-0.37883 -45.686397,-18.79664 -73.93752,-75.43981 -67.311044,-134.95838 3.560263,-31.97546 6.079882,-32.89988 17.283285,-6.34042 11.582844,27.45944 30.765453,47.49452 48.411606,50.56337 15.10008492,2.62611 43.44748,-3.36146 56.340385,-11.90031 5.574901,-3.69227 13.652847,-12.86175 17.951187,-20.37664 6.691362,-11.69882 7.785959,-18.61542 7.61246,-48.10264 C 66.339953,388.12422 59.64048,357.13008 38.193564,292.51919 30.203072,268.4468 28.697296,256.92139 27.165071,208.11533 24.339712,118.11684 36.629954,52.713664 67.212034,-4.9943921 111.47905,-88.526451 192.70425,-128.35457 296.77917,-117.56074 c 115.10165,11.93753 193.96909,57.57187 235.10607,136.037631 18.65365,35.580425 26.69315,66.615503 30.63109,118.246029 5.09708,66.8241 1.08261,100.02259 -23.24115,192.19189 -25.57528,96.91178 -28.62563,139.15674 -12.0307,166.61946 26.26823,43.47126 98.58325,29.7976 118.5191,-22.41023 3.48832,-9.13481 7.44248,-16.60877 8.78746,-16.60877 4.3008,0 7.47986,36.16829 5.51847,62.78508 -4.21547,57.20453 -46.17515,104.19078 -93.24813,104.4189 -18.51189,0.0899 -43.48522,-7.5167 -65.38069,-19.91365 l -16.76949,-9.49469 2.02839,28.67984 c 1.1154,15.77393 2.58874,34.58372 3.27357,41.79955 0.68518,7.21582 1.36789,29.56003 1.51741,49.65378 l 0.27153,36.53409 13.06006,2.27883 c 33.65394,5.87224 57.72732,26.4035 57.14934,48.74098 -0.19747,7.61889 4.33855,26.00817 10.2474,41.54804 20.59811,54.17057 27.97324,114.4056 16.9987,138.83518 -6.91176,15.38611 -23.69112,27.1061 -45.23466,31.5953 -10.29606,2.1454 -23.0532,5.4324 -28.34916,7.3045 -19.70663,6.9661 -35.91577,-5.4956 -27.09305,-20.829 4.213,-7.32181 23.1008,-8.13785 33.37852,-1.44212 5.91062,3.85062 9.20605,3.89552 20.51418,0.27978 17.88983,-5.72035 29.6758,-16.50542 34.54048,-31.60769 8.3396,-25.8897 -15.50069,-133.80598 -36.08787,-163.35676 -14.73263,-21.147 -29.4702,-27.84676 -61.46637,-27.94309 -27.77858,-0.0836 -49.90716,8.13486 -56.98536,21.16415 -2.2488,4.13985 -5.58548,8.43461 -7.41428,9.54388 -7.73871,4.6936 -26.39764,71.30032 -33.11016,118.19385 -6.37787,44.55314 2.57463,63.7988 34.41282,73.97919 11.32506,3.62121 14.60109,3.54331 21.24344,-0.50472 4.3195,-2.63236 13.12318,-4.31585 19.56381,-3.74104 10.47132,0.93451 11.83146,2.22346 12.85376,12.18087 1.63238,15.9022 -8.93909,20.3816 -31.11774,13.1851 z M 304.86241,719.1098 c 0,-1.69349 14.01289,-19.77406 31.1396,-40.17904 40.77552,-48.58066 48.05473,-59.32302 56.83091,-83.87078 6.97876,-19.51963 10.91001,-57.50873 6.38668,-61.71599 -1.16407,-1.08247 -6.60461,1.02842 -12.091,4.69088 -28.89364,19.28896 -106.34417,24.93108 -147.50477,10.74542 -38.49005,-13.26522 -34.93755,-14.97924 -32.20141,15.53604 3.71402,41.4194 13.66096,62.25019 50.86564,106.51988 17.82811,21.21368 34.0697,41.44637 36.09209,44.96152 3.80535,6.61347 10.48226,8.72315 10.48226,3.31207 z M 95.967081,874.4908 c -12.181628,-6.14772 -20.321286,-20.57914 -20.321286,-36.02977 0,-9.24039 2.73473,-14.51405 11.989792,-23.12233 10.233992,-9.51876 14.416663,-11.15174 28.563913,-11.15174 14.14725,0 18.32993,1.63298 28.56392,11.15174 9.76956,9.08663 11.98979,13.66336 11.98979,24.7148 0,30.44879 -32.36115,48.78247 -60.786129,34.4373 z" style="fill:#99a09e"/>
      <path id="path12463" d="m 435.91259,1017.8667 c -2.59402,-1.5767 -4.18091,-6.3896 -3.5264,-10.6955 0.90381,-5.9445 4.33043,-8.55055 14.23717,-10.82708 16.03,-3.68371 24.84003,1.68972 23.27712,14.19718 -0.92145,7.3706 -2.90611,8.5925 -15.16567,9.3363 -7.75811,0.4707 -16.22819,-0.4342 -18.82222,-2.0109 z m 54.67416,0.6085 c -1.29313,-1.2027 -2.35106,-6.3404 -2.35106,-11.4172 0,-7.06765 2.03051,-9.70468 8.66474,-11.25339 19.39914,-4.52852 36.70323,8.61369 26.45865,20.09489 -4.26378,4.7784 -28.36749,6.6728 -32.77233,2.5757 z M 101.80611,876.44741 c -11.940775,-4.49294 -26.160315,-22.60197 -26.160315,-33.31594 0,-37.88463 53.224445,-53.56066 74.039785,-21.80669 3.8727,5.90783 7.04718,14.94169 7.05458,20.07522 0.0353,25.15845 -30.10672,44.38899 -54.93405,35.04741 z m 213.63552,-93.14558 c -24.74798,-38.16001 -92.74985,-102.85575 -126.292,-120.15149 -12.2444,-6.31385 -25.45503,-13.72303 -29.35701,-16.46482 -7.08737,-4.98023 -7.08667,-4.99397 0.56035,-14.03609 4.20983,-4.97807 6.77987,-11.17079 5.71102,-13.7616 -1.67892,-4.0695 -4.24439,-4.02552 -18.85113,0.32307 -9.29914,2.76855 -19.68477,5.84183 -23.07894,6.82952 -4.37028,1.27169 -6.15887,0.01 -6.12925,-4.32661 0.0564,-8.51596 8.66192,-37.73357 13.67894,-46.45275 4.78252,-8.31161 4.01694,-8.62714 -8.28424,-3.41416 -23.26936,9.86121 -22.32252,65.50256 3.49326,205.28065 1.84291,9.97853 1.32135,10.65974 -8.16646,10.65974 l -10.13525,0 L 98.289575,732.8486 C 90.313894,690.31356 87.988227,667.86319 87.988227,633.4102 l 0,-44.49977 -20.591057,5.9607 c -22.831737,6.60933 -53.66913,7.69299 -73.4561654,2.58133 -19.7496556,-5.10205 -46.7686516,-29.74899 -59.9852816,-54.71933 -9.825987,-18.56429 -11.630098,-25.87947 -12.866458,-52.16784 -0.790621,-16.81672 -0.260954,-37.63038 1.175,-46.2526 l 2.612717,-15.67675 4.433049,11.65907 c 16.615383,43.6982 38.538718,65.44385 65.9346872,65.40079 C 28.227578,505.644 53.919939,489.35178 63.551268,462.38082 72.370466,437.6842 68.700179,390.29697 54.205578,341.71802 48.015319,320.97251 39.85415,293.66717 36.069255,281.03947 30.803267,263.4707 28.83271,244.21828 27.677105,199.04143 25.415619,110.64708 36.504061,53.584778 67.32629,-4.9943921 111.23679,-88.448881 192.64712,-128.36051 296.90824,-117.54733 c 101.57928,10.53504 173.53954,46.279924 217.53714,108.0576085 34.72314,48.7550175 48.07483,96.7188525 48.39997,173.8668115 0.24685,58.62177 -4.63511,91.15161 -25.08406,167.13532 -17.70187,65.77483 -22.65295,96.08327 -20.58717,126.0221 2.84228,41.19785 18.70795,60.84756 51.49509,63.77778 34.89806,3.11888 60.15632,-11.9868 76.66344,-45.84917 l 10.03651,-20.58781 3.03589,14.75965 c 1.67011,8.11781 2.32708,27.30535 1.46064,42.63898 -2.21917,39.27342 -12.28954,62.23681 -37.62785,85.80406 -32.8887,30.5898 -60.69973,32.9907 -110.59666,9.54776 l -27.72745,-13.02713 2.06189,23.61612 c 1.13409,12.98885 3.08631,48.20695 4.33819,78.26241 l 2.27665,54.64628 16.33609,3.76355 c 21.3644,4.92191 41.18176,17.22375 48.26279,29.95972 9.86266,17.73929 -1.10024,34.76517 -13.27376,20.61454 -21.92827,-25.48998 -39.71654,-32.70882 -73.62155,-29.8776 -24.23031,2.02332 -40.76459,9.62234 -48.48566,22.28386 -10.3151,16.91537 -25.25932,16.65862 -25.25932,-0.43397 0,-14.1339 22.78801,-34.13349 46.28906,-40.62472 10.15641,-2.80531 20.69473,-5.1006 23.41818,-5.1006 4.16539,0 4.55965,-10.02593 2.48189,-63.13849 -1.35838,-34.72617 -3.5853,-64.27121 -4.94826,-65.65567 -4.4066,-4.47598 -23.84664,-8.3291 -28.50679,-5.65019 -3.49397,2.00853 -2.79715,4.6485 3.05422,11.5671 4.16963,4.93055 7.58143,10.82486 7.58143,13.09844 0,2.27361 -8.33114,8.12807 -18.51365,13.00994 -44.78046,21.46938 -114.24191,81.22883 -110.57303,95.12891 0.95213,3.60791 5.8087,18.96487 10.79187,34.12653 4.98352,15.16167 8.64499,27.89226 8.13683,28.29015 -0.50815,0.39788 -9.65178,-12.73453 -20.31917,-29.18311 z m -3.0045,-73.41261 c 6.29218,-8.5688 22.83844,-28.86331 36.76952,-45.09892 36.44474,-42.47364 54.39522,-79.95432 54.39522,-113.57815 0,-21.13479 -2.31262,-23.10711 -16.55367,-14.11829 -18.96962,11.97319 -34.27106,15.23606 -79.45706,16.94316 -35.22037,1.3306 -44.99734,0.53223 -65.94139,-5.38461 -13.52413,-3.82079 -25.5573,-8.4031 -26.74005,-10.18295 -9.7678,-14.70018 -12.13508,25.98682 -3.34939,57.57335 7.55886,27.17678 14.88145,39.11326 46.9887,76.5985 15.38185,17.95826 30.85044,37.191 34.37438,42.73945 3.52359,5.54844 6.78199,10.08809 7.24043,10.08809 0.45843,0 5.98149,-7.01084 12.27331,-15.57963 z" style="fill:#769a8e"/>
      <path id="path12461" d="m 436.89505,1015.934 c -10.18779,-7.0365 -2.69382,-16.30861 14.25375,-17.63544 16.05327,-1.25683 21.11543,2.64324 18.07144,13.92324 -1.869,6.9271 -4.35688,8.44 -13.87854,8.44 -6.38069,0 -14.68185,-2.1275 -18.44665,-4.7278 z m 52.69479,-5e-4 c -1.07274,-2.6006 -1.40669,-7.3974 -0.74161,-10.6598 2.24562,-11.01429 38.17797,-8.72186 38.17797,2.4357 0,11.0571 -33.25334,18.3623 -37.43636,8.2241 z M 89.480251,866.75777 C 74.853058,853.15298 74.8453,831.75408 89.444987,816.53843 c 27.746493,-28.88319 78.497523,2.2717 62.329643,38.26261 -6.60144,14.69523 -18.25199,21.5442 -36.64821,21.5442 -12.27015,0 -17.426814,-1.9265 -25.663448,-9.58747 z M 397.64753,802.11878 c -6.35565,-15.40517 25.07171,-41.59977 55.84175,-46.54376 l 15.35116,-2.4666 -0.48276,-64.75241 c -0.40166,-53.86055 0.31385,-64.13739 4.25355,-61.09628 2.60496,2.01089 6.39268,2.70397 8.41719,1.54022 2.02451,-1.16375 3.95416,-1.65981 4.28776,-1.10235 0.33501,0.55745 1.52411,29.01907 2.64481,63.24804 l 2.03791,62.23444 14.71782,2.33019 c 28.29274,4.47939 53.7178,23.31211 55.07264,40.79285 1.16266,14.99806 -11.15297,14.40207 -24.62597,-1.1918 -12.67357,-14.66813 -29.31645,-20.44365 -58.91079,-20.44365 -25.38697,0 -40.89612,6.05988 -53.69628,20.98067 -10.77283,12.55764 -21.27201,15.28503 -24.90879,6.47044 z M 98.462721,727.10881 C 90.933132,684.66882 87.988227,656.9423 87.988227,628.49003 l 0,-39.5802 -20.591057,5.961 c -22.831385,6.6096 -53.668777,7.69338 -73.4561654,2.58163 -19.6988756,-5.08897 -46.7697096,-29.75129 -59.9129906,-54.58249 -10.292531,-19.44633 -11.487984,-24.87722 -12.767718,-58.00482 -0.776162,-20.10232 0.05995,-40.12857 1.856655,-44.50273 3.072913,-7.47849 3.647012,-6.97335 9.615813,8.46544 8.369227,21.64686 22.28726,40.30381 36.898937,49.46237 C 1.1704965,518.05858 54.354393,496.55787 65.146616,459.6763 71.870068,436.69868 67.326995,385.74237 54.776151,343.35798 48.899742,323.51445 40.838723,296.20911 36.862344,282.67943 32.172925,266.72448 28.866563,242.52 27.453531,213.80108 20.086509,64.094303 70.545196,-54.27751 159.42164,-95.784721 c 39.1495,-18.283729 64.73501,-22.713689 118.9927,-20.602759 144.8321,5.63477 241.24766,71.820539 273.41415,187.689017 9.37426,33.768463 14.02524,95.998223 10.21989,136.745643 -3.88928,41.64559 -4.6866,45.69203 -22.78272,115.63127 -19.57263,75.6448 -24.12135,103.50527 -22.12822,135.52928 2.51504,40.41244 18.173,59.12324 52.00678,62.147 34.41564,3.07575 68.47335,-18.25529 78.41289,-49.11151 2.20541,-6.84641 5.12987,-12.44802 6.49882,-12.44802 1.36895,0 3.49784,6.84785 4.73138,15.21742 7.74752,52.57334 -7.15508,99.3076 -40.5798,127.2588 -30.92344,25.85959 -59.1132,27.45402 -105.28695,5.95505 -14.54644,-6.773 -28.30896,-12.12856 -30.58349,-11.90122 -2.27453,0.22729 -5.16513,-3.40207 -6.42336,-8.06527 -8.21336,-30.43754 -40.56887,-67.45414 -70.51161,-80.66977 -15.96864,-7.04802 -18.48473,-5.13675 -11.32859,8.60609 6.36517,12.22397 4.16504,16.35838 -13.13658,24.68417 -32.19788,15.49428 -100.02237,19.09606 -140.5193,7.46221 -12.57871,-3.61365 -24.84497,-8.7832 -27.25844,-11.48789 -4.1661,-4.6689 -3.42027,-15.86531 1.91025,-28.68075 3.4178,-8.21712 -4.64146,-7.3383 -25.17186,2.74484 -22.35003,10.97697 -31.43759,18.84167 -46.04115,39.84616 -6.56653,9.4444 -16.47504,19.35337 -22.01926,22.01998 -8.64852,4.15986 -10.71005,7.95312 -14.5154,26.71096 -5.39894,26.61404 -3.11911,58.01715 8.88373,122.36341 11.1572,59.8118 11.21081,64.28801 0.77087,64.28801 -7.68263,0 -8.50429,-2.62076 -18.513649,-59.03859 z" style="fill:#a68459"/>
      <path id="path12459" d="m 436.89505,1015.934 c -10.18779,-7.0365 -2.69382,-16.30861 14.25375,-17.63544 16.05327,-1.25683 21.11543,2.64324 18.07144,13.92324 -1.869,6.9271 -4.35688,8.44 -13.87854,8.44 -6.38069,0 -14.68185,-2.1275 -18.44665,-4.7278 z m 52.69479,-5e-4 c -1.07274,-2.6006 -1.40669,-7.3974 -0.74161,-10.6598 2.24562,-11.01429 38.17797,-8.72186 38.17797,2.4357 0,11.0571 -33.25334,18.3623 -37.43636,8.2241 z M 89.480251,866.75777 C 74.853058,853.15298 74.8453,831.75408 89.444987,816.53843 c 27.746493,-28.88319 78.497523,2.2717 62.329643,38.26261 -6.60144,14.69523 -18.25199,21.5442 -36.64821,21.5442 -12.27015,0 -17.426814,-1.9265 -25.663448,-9.58747 z M 397.64753,802.11878 c -6.35565,-15.40517 25.07171,-41.59977 55.84175,-46.54376 l 15.35116,-2.4666 -0.48276,-64.75241 c -0.40166,-53.86055 0.31385,-64.13739 4.25355,-61.09628 2.60496,2.01089 6.39268,2.70397 8.41719,1.54022 2.02451,-1.16375 3.95416,-1.65981 4.28776,-1.10235 0.33501,0.55745 1.52411,29.01907 2.64481,63.24804 l 2.03791,62.23444 14.71782,2.33019 c 28.29274,4.47939 53.7178,23.31211 55.07264,40.79285 1.16266,14.99806 -11.15297,14.40207 -24.62597,-1.1918 -12.67357,-14.66813 -29.31645,-20.44365 -58.91079,-20.44365 -25.38697,0 -40.89612,6.05988 -53.69628,20.98067 -10.77283,12.55764 -21.27201,15.28503 -24.90879,6.47044 z M 98.462721,727.10881 c -7.594122,-42.80377 -10.474494,-70.09731 -10.474494,-99.2541 0,-34.51059 -0.750419,-39.91229 -5.289614,-38.07796 -34.121184,13.78869 -78.2291605,13.81169 -103.469083,0.0538 -21.084755,-11.49284 -39.380824,-31.95821 -48.5777,-54.33705 -8.517337,-20.72605 -12.956734,-73.45857 -7.73659,-91.89448 l 3.193164,-11.27617 8.078299,20.60745 c 5.462055,13.93255 13.478994,25.81856 24.750809,36.69556 16.061385,15.49878 17.374267,16.07893 35.8343147,15.83855 C 29.38953,505.01361 49.80603,493.43184 62.302567,467.1558 68.655746,453.79714 69.282036,447.5278 67.603818,414.0824 66.085699,383.83441 63.054397,367.52546 52.628215,333.51805 28.172566,253.75069 28.571403,256.165 28.519565,187.5617 28.484301,140.02941 30.051437,116.02192 34.624485,94.083938 55.309344,-5.1447437 96.014688,-65.838873 162.69909,-96.882511 c 36.86896,-17.163599 67.3657,-22.089119 121.00486,-19.543449 49.20223,2.33514 90.23623,11.29996 128.33838,28.038544 56.03323,24.615681 92.46457,57.53914 118.63335,107.210207 21.44374,40.701663 28.38865,70.168413 30.62792,129.948689 2.43957,65.12911 -1.83549,96.94205 -24.3354,181.09707 -15.02321,56.19132 -17.89088,72.04446 -19.35046,106.9672 -1.59606,38.20282 -1.15349,42.00385 6.49247,55.73219 11.29121,20.27363 27.23799,29.54577 50.8145,29.54577 10.25409,0 22.63179,-1.41011 27.50529,-3.13354 15.39454,-5.44382 36.29909,-25.81194 44.78187,-43.63277 l 8.18374,-17.19216 3.12898,22.85373 c 7.72919,56.44942 -15.02109,109.27017 -56.93388,132.18688 -25.16445,13.75924 -51.66401,12.42805 -87.60447,-4.40074 -15.13253,-7.08574 -29.37464,-12.6972 -31.64917,-12.46986 -2.27453,0.22729 -5.16513,-3.40207 -6.42336,-8.06527 -8.6263,-31.96759 -37.78759,-64.64614 -73.11198,-81.93037 l -20.1954,-9.88158 5.59148,12.01287 c 10.636,22.8504 10.65046,22.80316 -9.75758,31.60257 -10.40537,4.48634 -27.64634,9.84433 -38.31373,11.90664 -35.792,6.91959 -105.02211,-0.97646 -124.45792,-14.19507 -5.68457,-3.86605 -5.78155,-5.51312 -1.16548,-19.77905 4.66756,-14.42588 4.58398,-15.56181 -1.14714,-15.56181 -8.67215,0 -38.78486,15.24691 -50.74609,25.69425 -5.50684,4.80971 -13.95541,14.96493 -18.77495,22.56717 -4.8192,7.60223 -14.02312,16.84637 -20.45318,20.54251 -10.26643,5.90156 -12.22712,9.36385 -16.09277,28.42036 -5.36367,26.43836 -3.06163,57.98796 8.91653,122.20092 11.1572,59.8118 11.21081,64.28801 0.77087,64.28801 -7.68263,0 -8.50429,-2.62076 -18.513649,-59.03859 z M 381.48599,450.77541 c -0.761,-6.76484 -1.38341,-1.22997 -1.38341,12.29971 0,13.52967 0.62241,19.06454 1.38341,12.2997 0.76065,-6.76483 0.76065,-17.83457 0,-24.59941 z M 177.91167,399.625 c 0,-0.6224 -3.57049,-3.94332 -7.93442,-7.37982 l -7.93443,-6.24822 6.71781,7.37982 c 6.31298,6.9352 9.15104,8.87298 9.15104,6.24822 z" style="fill:#a67c4c"/>
      <ellipse style="opacity:1;fill:#99a09e;fill-opacity:1;stroke:none;stroke-width:5;stroke-linecap:round;stroke-linejoin:round;stroke-miterlimit:4;stroke-dasharray:none;stroke-opacity:1" id="path12473" cx="116.76566" cy="841.62579" rx="52.56781" ry="48.846191"/>
      <path id="path12457" d="m 436.89505,1015.934 c -10.18779,-7.0365 -2.69382,-16.30861 14.25375,-17.63544 16.05327,-1.25683 21.11543,2.64324 18.07144,13.92324 -1.869,6.9271 -4.35688,8.44 -13.87854,8.44 -6.38069,0 -14.68185,-2.1275 -18.44665,-4.7278 z m 52.69479,-5e-4 c -1.07274,-2.6006 -1.40669,-7.3974 -0.74161,-10.6598 2.24562,-11.01429 38.17797,-8.72186 38.17797,2.4357 0,11.0571 -33.25334,18.3623 -37.43636,8.2241 z M 89.480251,866.75777 C 74.853058,853.15298 74.8453,831.75408 89.444987,816.53843 c 27.746493,-28.88319 78.497523,2.2717 62.329643,38.26261 -6.60144,14.69523 -18.25199,21.5442 -36.64821,21.5442 -12.27015,0 -17.426814,-1.9265 -25.663448,-9.58747 z M 397.64753,802.11878 c -6.35565,-15.40517 25.07171,-41.59977 55.84175,-46.54376 l 15.35116,-2.4666 -0.48276,-64.75241 c -0.40166,-53.86055 0.31385,-64.13739 4.25355,-61.09628 2.60496,2.01089 6.39268,2.70397 8.41719,1.54022 2.02451,-1.16375 3.95416,-1.65981 4.28776,-1.10235 0.33501,0.55745 1.52411,29.01907 2.64481,63.24804 l 2.03791,62.23444 14.71782,2.33019 c 28.29274,4.47939 53.7178,23.31211 55.07264,40.79285 1.16266,14.99806 -11.15297,14.40207 -24.62597,-1.1918 -12.67357,-14.66813 -29.31645,-20.44365 -58.91079,-20.44365 -25.38697,0 -40.89612,6.05988 -53.69628,20.98067 -10.77283,12.55764 -21.27201,15.28503 -24.90879,6.47044 z M 98.462721,727.10881 C 90.872125,684.32551 87.988227,657.00753 87.988227,627.89098 l 0,-40.13673 c 0,0.023 -10.059435,2.97542 -22.354261,6.56004 -26.870535,7.83426 -50.128263,8.29397 -71.8195595,1.41962 C -58.061544,579.2935 -89.25863,513.42332 -77.2304,445.72774 l 2.207884,-12.42749 8.060667,18.44625 c 17.366861,39.74363 34.588081,53.9676 65.3390766,53.9676 24.1008924,0 46.8571654,-10.16802 58.0905424,-25.95632 C 77.238674,450.56484 75.039252,404.83368 48.725538,318.75857 30.805383,260.14145 26.334249,226.55971 28.418709,166.24221 33.915676,7.1711979 98.500807,-90.125971 213.78125,-113.00618 c 35.93234,-7.1316 95.75118,-4.32382 141.52151,6.64269 138.53993,33.194091 206.81721,124.780293 206.95862,277.61162 0.0423,44.83088 -5.18242,78.64727 -22.78696,147.51044 -21.40777,83.74036 -23.43687,94.4027 -23.85721,125.37028 -0.55365,40.78999 9.0068,61.6351 33.76113,73.61088 12.94157,6.26108 44.68843,6.21992 57.77599,-0.0751 15.40195,-7.40793 31.71371,-24.37555 38.76264,-40.32096 3.46329,-7.83425 7.25736,-14.24965 8.43165,-14.25641 4.29235,-0.0262 6.21671,42.18347 2.91246,63.88468 -7.46858,49.05139 -37.62679,85.60543 -77.50201,93.93859 -19.01546,3.97379 -51.47606,-3.37822 -75.29308,-17.05307 -9.49873,-5.45388 -19.41676,-9.15012 -22.04006,-8.21387 -2.7647,0.98676 -4.76946,-0.46998 -4.76946,-3.46573 0,-11.01627 -21.96636,-47.19722 -37.05446,-61.03235 -8.71411,-7.99068 -24.36255,-18.40791 -34.77357,-23.14946 -21.16233,-9.63776 -23.38503,-14.2079 -23.38503,-48.08454 l 0,-18.74321 20.71131,-14.95962 c 11.39136,-8.22778 25.2766,-20.52546 30.85608,-27.32818 l 10.14478,-12.36855 0,-56.01614 c 0,-60.44377 -3.30213,-79.72722 -18.75063,-109.49274 -10.81655,-20.84132 -27.27113,-35.3345 -56.65353,-49.9006 C 319.49771,146.68552 266.23482,93.768213 236.56044,39.769027 L 220.44828,10.449316 206.84797,27.667231 c -69.47062,87.950409 -92.16024,182.267049 -71.23453,296.113159 6.53797,35.5695 8.26309,40.0258 22.85819,59.04958 14.80669,19.29909 52.68068,54.00578 58.93441,54.00578 1.55233,0 2.82254,14.06797 2.82254,31.26217 0,26.86456 -0.8682,31.52897 -6.17122,33.15844 -31.23199,9.59672 -54.44599,26.08111 -72.90957,51.77353 -5.08931,7.08213 -13.7671,15.42963 -19.28346,18.54995 -8.41014,4.75704 -10.75273,9.23521 -14.50413,27.72603 -5.44054,26.8196 -3.18646,58.05275 8.8453,122.55352 11.1572,59.8118 11.21081,64.28801 0.77087,64.28801 -7.68263,0 -8.50429,-2.62076 -18.513649,-59.03859 z" style="fill:#4f301a"/>
    </g>
  </g>
</svg>
